<?xml version="1.0" encoding="UTF-8"?>
<svg xmlns="http://www.w3.org/2000/svg" xmlns:xlink="http://www.w3.org/1999/xlink" width="300pt" height="300pt" viewBox="0 0 300 300" version="1.1">
<g id="surface1">
<path style=" stroke:none;fill-rule:nonzero;fill:rgb(0%,0%,0%);fill-opacity:1;" d="M 290.683594 111.679688 L 267.539062 94.160156 L 267.539062 12.949219 C 267.539062 9.316406 264.492188 6.855469 261.445312 6.855469 L 232.207031 6.855469 C 228.574219 6.855469 226.113281 9.902344 226.113281 12.949219 L 226.113281 62.871094 L 153.515625 8.027344 C 151.054688 6.210938 148.007812 6.210938 146.191406 8.027344 L 9.082031 111.679688 C 7.265625 113.496094 6.621094 115.957031 7.265625 118.359375 C 7.851562 120.820312 10.3125 122.636719 12.773438 122.636719 L 39.609375 122.636719 L 39.609375 242.109375 L 28.535156 242.109375 C 24.902344 242.109375 22.441406 245.15625 22.441406 248.203125 L 22.441406 287.226562 C 22.441406 290.859375 25.488281 293.320312 28.535156 293.320312 L 271.171875 293.320312 C 274.804688 293.320312 277.265625 290.859375 277.265625 287.226562 L 277.265625 248.203125 C 277.265625 244.570312 274.21875 242.109375 271.171875 242.109375 L 260.214844 242.109375 L 260.214844 122.636719 L 287.050781 122.636719 C 289.511719 122.636719 291.914062 120.820312 292.558594 118.359375 C 293.730469 115.957031 292.5 113.496094 290.683594 111.679688 Z M 238.242188 19.042969 L 255.292969 19.042969 L 255.292969 84.960938 L 238.242188 72.070312 Z M 265.664062 281.132812 L 34.6875 281.132812 L 34.6875 254.296875 L 265.722656 254.296875 L 265.722656 281.132812 Z M 247.96875 242.109375 L 51.679688 242.109375 L 51.679688 122.636719 L 247.96875 122.636719 Z M 30.351562 110.449219 L 149.824219 20.214844 L 269.296875 110.449219 Z M 30.351562 110.449219 "/>
</g>
</svg>
