<?xml version="1.0" encoding="UTF-8"?>
<svg xmlns="http://www.w3.org/2000/svg" xmlns:xlink="http://www.w3.org/1999/xlink" width="300pt" height="300pt" viewBox="0 0 300 300" version="1.1">
<g id="surface1">
<path style=" stroke:none;fill-rule:nonzero;fill:rgb(0%,0%,0%);fill-opacity:1;" d="M 36 12 C 16.191406 12 0 28.191406 0 48 L 0 222 C 0 241.808594 16.191406 258 36 258 L 300 258 L 300 42 L 70.78125 42 C 67.808594 25.136719 53.683594 12 36 12 Z M 36 24 C 49.320312 24 60 34.679688 60 48 L 60 195.269531 C 53.617188 189.53125 45.214844 186 36 186 C 26.785156 186 18.382812 189.53125 12 195.269531 L 12 48 C 12 34.679688 22.679688 24 36 24 Z M 72 54 L 288 54 L 288 246 L 36 246 C 22.679688 246 12 235.320312 12 222 C 12 208.679688 22.679688 198 36 198 C 49.320312 198 60 208.679688 60 222 L 72 222 Z M 210 90 L 226.757812 106.757812 L 195 138.515625 L 162.269531 105.785156 L 110.050781 151.488281 L 117.949219 160.511719 L 161.730469 122.214844 L 195 155.484375 L 235.242188 115.242188 L 252 132 L 252 90 Z M 102 192 L 102 204 L 252 204 L 252 192 Z M 102 192 "/>
</g>
</svg>
